HIERARCHY
ROOT Hips
{
  OFFSET 2.26061 22.2878 23.7974
  CHANNELS 6 Xposition Yposition Zposition Zrotation Xrotation Yrotation
  JOINT LeftUpLeg
  {
    OFFSET 8.64259 1.95398 -2.38835
    CHANNELS 3 Zrotation Xrotation Yrotation
    JOINT LeftLeg
    {
      OFFSET 43.7702 0 0
      CHANNELS 3 Zrotation Xrotation Yrotation
      JOINT LeftFoot
      {
        OFFSET 40.6238 0 0
        CHANNELS 3 Zrotation Xrotation Yrotation
        JOINT LeftToeBase
        {
          OFFSET 12.7242 0 0
          CHANNELS 3 Zrotation Xrotation Yrotation
          End Site
          {
            OFFSET 0 0 0
          }
        }
      }
    }
  }
  JOINT RightUpLeg
  {
    OFFSET -8.2249 1.95398 -2.59336
    CHANNELS 3 Zrotation Xrotation Yrotation
    JOINT RightLeg
    {
      OFFSET 43.5653 0 0
      CHANNELS 3 Zrotation Xrotation Yrotation
      JOINT RightFoot
      {
        OFFSET 40.6238 0 0
        CHANNELS 3 Zrotation Xrotation Yrotation
        JOINT RightToeBase
        {
          OFFSET 12.7242 0 0
          CHANNELS 3 Zrotation Xrotation Yrotation
          End Site
          {
            OFFSET 0 0 0
          }
        }
      }
    }
  }
  JOINT Spine
  {
    OFFSET 0.165834 0.87714 6.61349
    CHANNELS 3 Zrotation Xrotation Yrotation
    JOINT Spine1
    {
      OFFSET 7.38963 1.71661e-005 0
      CHANNELS 3 Zrotation Xrotation Yrotation
      JOINT Spine2
      {
        OFFSET 11.9445 1.14441e-005 0
        CHANNELS 3 Zrotation Xrotation Yrotation
        JOINT Spine3
        {
          OFFSET 14.7254 4.19617e-005 0
          CHANNELS 3 Zrotation Xrotation Yrotation
          JOINT Spine4
          {
            OFFSET 10.9679 0 0
            CHANNELS 3 Zrotation Xrotation Yrotation
            JOINT RightShoulder
            {
              OFFSET 2.46616 -1.6653 3.69651
              CHANNELS 3 Zrotation Xrotation Yrotation
              JOINT RightArm
              {
                OFFSET 13.0012 0 0
                CHANNELS 3 Zrotation Xrotation Yrotation
                JOINT RightForeArm
                {
                  OFFSET 28.7848 1.52588e-005 0
                  CHANNELS 3 Zrotation Xrotation Yrotation
                  JOINT RightHand
                  {
                    OFFSET 26.5688 1.52588e-005 0
                    CHANNELS 3 Zrotation Xrotation Yrotation
                    End Site
                    {
                      OFFSET 0 0 0
                    }
                  }
                }
              }
            }
            JOINT LeftShoulder
            {
              OFFSET 2.38034 -1.29275 -3.7523
              CHANNELS 3 Zrotation Xrotation Yrotation
              JOINT LeftArm
              {
                OFFSET 16.3182 6.10351e-005 0
                CHANNELS 3 Zrotation Xrotation Yrotation
                JOINT LeftForeArm
                {
                  OFFSET 27.0901 0 0
                  CHANNELS 3 Zrotation Xrotation Yrotation
                  JOINT LeftHand
                  {
                    OFFSET 24.5451 1.52588e-005 0
                    CHANNELS 3 Zrotation Xrotation Yrotation
                    End Site
                    {
                      OFFSET 0 0 0
                    }
                  }
                }
              }
            }
            JOINT Neck
            {
              OFFSET 5.0226 -0.0266342 0
              CHANNELS 3 Zrotation Xrotation Yrotation
              JOINT Head
              {
                OFFSET 6.69363 2.86102e-005 0
                CHANNELS 3 Zrotation Xrotation Yrotation
                End Site
                {
                  OFFSET 0 0 0
                }
              }
            }
          }
        }
      }
    }
  }
}
MOTION
Frames:	7
Frame Time:	0.0416667
38.1824 95.1825 17.4023 91.1868 -37.4123 90.0757 -172.543 16.211 91.3165 -27.7764 8.01438 0.115096 63.5398 3.5794 3.11014 35.1824 5.0345 0.324011 177.875 17.8762 90.3833 -36.8844 -2.14698 -4.67674 71.3042 -5.84018 -2.97816 36.8218 0.3657 -6.09588 -0.158093 7.74128 -90.0783 11.3912 -0.351062 -0.120601 -0.27974 -0.356012 -0.105044 -22.8151 -0.298576 -0.220536 -2.8025 -0.298579 -0.220537 93.5792 -50.8285 -95.181 26.7747 -5.85082 -2.11485 -6.24027 -22.1502 -42.121 -11.3493 -1.23154 5.53839 -103.619 -52.9975 60.0316 -16.1803 8.40206 4.72775 3.06233 4.49896 -37.2784 10.5136 0.468922 0.581093 4.70509 -4.97565 9.1488 4.93419 -7.11659 -10.4771 
38.8635 95.2439 17.2853 91.2632 -36.9374 90.2299 -172.734 15.7597 91.0113 -27.6973 7.55696 0.305707 64.2143 3.95461 3.00221 34.9539 4.85997 -0.102346 177.63 16.0667 90.6453 -32.8664 -4.7943 -4.48636 71.1573 -5.78037 -2.96268 36.1267 0.337022 -7.67617 -0.11529 7.67835 -89.8457 11.5169 -0.157104 0.323504 -0.154113 -0.142728 0.330098 -22.6891 -0.24707 0.261334 -2.67643 -0.247083 0.261324 96.2357 -55.3358 -90.6103 24.0472 -5.2748 -2.47687 -6.59243 -27.2827 -37.4923 -6.43467 -0.909884 5.33328 -101.683 -51.373 62.1111 -16.4888 7.50201 3.85186 2.76006 3.73452 -38.8654 16.9434 1.29861 3.86588 4.31709 -4.96285 4.34605 5.54646 -6.095 -6.73362 
39.6139 95.5326 17.6341 91.0477 -36.2979 89.9524 -172.942 14.5552 90.6876 -25.9893 8.14334 0.444673 64.0149 4.07567 3.14786 34.4616 4.47058 0.120516 177.595 13.7922 90.8971 -28.1454 -3.69862 -4.77656 69.1276 -4.72036 -2.49262 30.3219 0.333828 -4.79171 -0.0502358 7.52668 -89.7775 11.8203 0.00477978 0.442977 0.149292 0.024264 0.442333 -22.3853 -0.128577 0.423939 -2.37265 -0.12857 0.423931 95.2315 -54.9056 -92.1304 24.1477 -4.49884 1.32469 -11.5925 -33.4958 -39.2392 0.721717 -0.621043 6.59217 -101.762 -52.1255 62.2848 -16.1738 5.72954 4.69456 1.21793 0.306554 -41.1401 17.8003 1.21193 2.93224 3.93271 -5.64804 6.73596 5.0756 -7.29125 -9.40622 
40.3075 96.1842 17.9972 91.2057 -35.5903 90.3759 -173.009 12.4372 90.9637 -22.8277 8.79301 0.710693 63.1669 3.36339 2.54729 34.3142 4.353 0.205885 177.137 10.6786 90.9102 -23.5779 -3.43884 -4.54874 68.0776 -4.35644 -2.33159 30.4428 0.253832 -3.44745 -0.0425226 7.44124 -89.8034 11.9912 0.00825017 0.391286 0.320228 0.0254578 0.390545 -22.2145 -0.109738 0.375673 -2.20184 -0.109728 0.375677 95.1933 -54.1618 -92.2783 24.5349 -5.25773 4.10899 -11.8949 -33.8799 -39.7778 2.48294 -0.498633 6.91332 -101.629 -53.1964 62.8712 -16.5551 4.9116 5.94758 2.37766 0.830388 -43.1196 17.3828 1.29783 3.59332 4.33885 -6.00101 7.64694 3.87495 -7.71647 -9.618 
40.9556 96.7979 18.2971 90.4802 -35.6425 89.9838 -172.654 10.1248 91.111 -18.0807 8.78159 0.479908 62.8295 2.72651 1.35684 32.9594 3.26093 0.79425 175.722 8.38103 90.209 -18.71 -5.64338 -3.78642 66.5777 -3.60612 -1.96536 29.5703 0.253875 -3.7284 -0.0218699 7.2916 -89.8305 12.2905 0.0369579 0.334208 0.619504 0.0516353 0.332249 -21.9153 -0.0651904 0.329864 -1.90268 -0.0651921 0.329867 95.6963 -53.6279 -91.5998 24.8619 -5.89959 6.38028 -9.29415 -29.6581 -40.3526 0.761688 -0.517498 3.1273 -100.807 -53.2713 64.0464 -18.7147 5.16082 7.14481 3.36458 1.99301 -42.8779 17.9333 1.41158 4.00354 5.24135 -6.04898 8.26699 2.09516 -7.76211 -9.49922 
41.1957 97.1416 18.6224 89.6605 -35.7656 89.0792 -172.138 8.50302 91.0935 -13.94 10.6221 -0.181663 61.7748 1.5951 2.39379 32.027 2.48229 1.42843 175.027 6.85622 89.7047 -14.8377 -6.44947 -3.53694 66.0313 -3.3759 -1.84634 28.1534 0.212851 -3.49981 -0.0526691 7.19406 -89.8271 12.4857 -0.0223511 0.34785 0.814655 -0.00699211 0.348495 -21.7202 -0.125858 0.325055 -1.70752 -0.125858 0.325051 95.595 -53.0955 -91.8137 25.4307 -6.00562 7.63831 -9.55783 -27.4286 -42.237 -2.34386 -0.657456 4.49488 -101.052 -53.4802 63.7792 -20.1658 7.26316 7.8272 1.80329 1.56375 -39.8238 15.9324 1.09999 3.01017 6.29481 -5.69559 9.13607 1.44259 -7.57861 -9.56001 
41.4781 97.27 18.8389 88.8841 -35.8464 88.4429 -171.934 7.53438 91.0863 -11.4518 9.60877 -0.338358 61.1621 0.431711 0.33761 32.6303 2.96932 1.40752 174.259 6.02442 89.2062 -12.3214 -7.54771 -3.05003 65.5154 -3.17161 -1.74566 28.6969 0.172296 -2.65825 -0.111755 7.11744 -89.8577 12.6392 -0.15411 0.302649 0.968259 -0.140622 0.309124 -21.5668 -0.237941 0.242341 -1.55414 -0.237925 0.242342 95.8829 -53.1924 -91.3732 25.4945 -5.92357 6.78818 -9.77002 -26.3816 -42.7168 -5.10238 -0.771857 4.11145 -102.464 -54.0815 62.0443 -20.6006 9.44863 8.06128 2.34666 4.68764 -35.5647 12.3362 0.81516 2.64837 6.13089 -5.09916 9.59773 1.7347 -7.01078 -8.17517 
